<?xml version="1.0" standalone="no"?>
<!DOCTYPE svg PUBLIC "-//W3C//DTD SVG 20010904//EN"
 "http://www.w3.org/TR/2001/REC-SVG-20010904/DTD/svg10.dtd">
<svg version="1.0" xmlns="http://www.w3.org/2000/svg"
 width="480.000000pt" height="480.000000pt" viewBox="0 0 480.000000 480.000000"
 preserveAspectRatio="xMidYMid meet">
<metadata>
Created by potrace 1.14, written by Peter Selinger 2001-2017
</metadata>
<g transform="translate(0.000000,480.000000) scale(0.100000,-0.100000)"
fill="#000000" stroke="none">
<path d="M2654 4003 c4 -7 3 -13 -2 -13 -5 0 -26 -15 -46 -34 -20 -19 -36 -32
-36 -28 -1 4 -9 -3 -19 -15 -10 -12 -21 -19 -25 -16 -3 3 -8 -2 -12 -11 -3 -9
-13 -16 -20 -16 -8 0 -25 -6 -37 -14 -53 -33 -64 -30 -76 21 -7 26 -17 51 -23
54 -6 4 -28 -4 -49 -17 -21 -13 -43 -24 -48 -24 -5 0 -11 -6 -13 -12 -3 -7
-11 -13 -19 -13 -12 -1 -59 -21 -179 -78 -14 -7 -28 -16 -32 -22 -4 -5 -8 -7
-8 -3 0 8 -148 -68 -171 -88 -8 -8 -21 -14 -28 -14 -7 0 -10 -4 -6 -9 3 -5 -5
-13 -17 -16 -11 -4 -31 -17 -43 -29 -12 -11 -33 -31 -46 -43 -42 -39 -59 -59
-59 -71 0 -7 -3 -12 -7 -12 -5 0 -16 -14 -25 -30 -21 -37 -38 -39 -38 -5 0 14
-4 25 -10 25 -5 0 -10 9 -10 19 0 38 -29 32 -55 -13 -14 -23 -25 -48 -25 -54
0 -7 -4 -12 -9 -12 -8 0 -27 -40 -22 -47 0 -2 -8 -12 -19 -23 -19 -19 -36 -52
-46 -90 -2 -8 -11 -40 -19 -70 -12 -43 -14 -91 -11 -220 5 -141 9 -205 16
-205 1 0 3 -16 5 -35 2 -19 6 -48 9 -65 2 -16 7 -52 11 -80 3 -27 8 -57 10
-65 2 -8 7 -31 10 -50 14 -95 29 -167 36 -182 12 -22 -7 -34 -27 -17 -25 20
-63 19 -69 -2 -4 -11 -10 -17 -14 -15 -10 7 -11 -2 -15 -106 -1 -49 1 -88 5
-88 4 0 6 -11 5 -26 -2 -14 3 -48 10 -75 7 -28 16 -69 19 -92 4 -23 9 -45 11
-49 8 -13 -18 -20 -81 -23 -74 -4 -103 -19 -110 -60 -7 -38 -1 -192 7 -201 4
-3 4 -16 0 -28 -9 -25 -8 -69 2 -84 3 -6 2 -13 -4 -17 -6 -4 -7 -11 -3 -17 3
-7 7 -32 8 -58 1 -25 3 -51 6 -56 2 -5 4 -46 4 -91 0 -46 4 -83 8 -83 4 0 3
-9 -3 -20 -8 -15 -8 -20 1 -20 8 0 8 -4 -1 -15 -7 -8 -8 -15 -3 -15 15 0 7
-72 -10 -84 -18 -14 -91 -146 -80 -146 5 0 3 -4 -3 -8 -9 -6 -35 -83 -48 -142
-2 -8 -9 -33 -15 -55 -5 -22 -13 -56 -16 -75 -3 -19 -10 -51 -16 -70 -5 -19
-12 -57 -15 -85 l-6 -50 1043 3 c573 2 1046 5 1050 8 4 2 10 -2 13 -8 5 -11 7
-11 12 0 3 6 10 10 14 7 5 -3 125 -6 267 -6 409 0 390 -1 397 18 4 9 3 19 -1
22 -4 3 -8 17 -9 31 -1 26 -11 88 -20 124 -3 12 -7 35 -9 51 -2 17 -4 30 -5
30 -2 0 -5 14 -13 55 -12 58 -22 88 -49 148 -15 34 -28 67 -28 72 0 6 -6 10
-14 10 -8 0 -17 9 -21 19 -3 11 -12 21 -19 24 -9 4 -12 20 -9 54 1 26 5 87 7
134 1 47 6 91 10 97 3 6 2 13 -4 17 -6 4 -7 12 -3 18 11 19 11 47 -1 47 -7 0
-8 3 -1 8 6 4 11 21 12 37 0 17 4 101 7 189 4 87 9 162 11 167 3 4 1 10 -3 13
-5 3 -8 16 -5 28 6 37 -39 62 -117 64 -60 3 -65 5 -66 26 0 13 2 28 5 33 3 6
6 15 7 20 1 6 5 26 9 45 4 19 8 43 9 53 0 9 3 17 6 17 4 0 7 12 8 28 1 15 4
57 6 95 4 48 2 67 -7 67 -8 0 -8 3 2 9 15 9 9 41 -15 79 -12 18 -21 21 -47 17
-18 -4 -33 -10 -35 -16 -2 -5 -10 -9 -18 -9 -13 0 -15 24 -2 45 3 6 9 30 13
55 4 25 9 54 12 65 2 11 6 38 9 60 3 22 7 54 10 70 18 118 27 247 27 372 0
106 -4 133 -28 205 -15 46 -36 100 -46 121 -11 20 -16 37 -12 37 5 0 4 4 -2 8
-5 4 -21 30 -35 57 -14 28 -30 56 -37 63 -7 7 -13 20 -13 27 0 8 -8 18 -17 24
-10 5 -18 13 -17 18 2 12 -47 86 -53 80 -2 -3 -6 -27 -9 -53 -2 -26 -6 -49 -9
-52 -7 -7 -94 86 -106 113 -14 31 -62 113 -79 132 -9 10 -17 21 -18 25 -10 31
-15 37 -25 31 -5 -3 -7 -2 -4 3 9 16 -10 37 -27 31 -8 -3 -19 -21 -24 -38 -4
-18 -13 -34 -19 -36 -6 -2 -25 40 -43 97 -18 55 -36 100 -41 100 -5 0 -8 3 -8
8 3 20 -2 32 -15 32 -13 0 -31 -27 -28 -42 1 -5 -1 -8 -5 -9 -5 0 -15 -2 -23
-4 -12 -2 -15 7 -14 46 1 34 -3 52 -14 61 -12 10 -14 10 -8 1z"/>
</g>
</svg>
